<?xml version="1.0" standalone="no"?><!DOCTYPE svg PUBLIC "-//W3C//DTD SVG 1.1//EN" "http://www.w3.org/Graphics/SVG/1.1/DTD/svg11.dtd"><svg class="icon" height="512" viewBox="0 0 1024 1024" version="1.1" xmlns="http://www.w3.org/2000/svg"><path d="M914.2784 365.714286H658.2784a36.425143 36.425143 0 0 1-36.571429-36.571429V73.142857H109.706971v877.714286h804.571429V365.714286z m-14.921143-73.142857L694.849829 87.844571V292.571429h204.507428zM694.849829 0.219429a36.498286 36.498286 0 0 1 26.550857 10.678857l255.488 255.780571a35.84 35.84 0 0 1 10.459428 25.892572H987.421257v658.285714a73.142857 73.142857 0 0 1-73.142857 73.142857H109.706971a73.142857 73.142857 0 0 1-73.142857-73.142857V73.142857a73.142857 73.142857 0 0 1 73.142857-73.142857h585.142858v0.219429zM475.421257 585.142857V402.285714a36.571429 36.571429 0 0 1 73.142857 0V585.142857h182.857143a36.571429 36.571429 0 0 1 0 73.142857H548.564114v182.857143a36.571429 36.571429 0 1 1-73.142857 0V658.285714H292.564114a36.571429 36.571429 0 0 1 0-73.142857H475.421257z" /></svg>