<?xml version="1.0" standalone="no"?><!DOCTYPE svg PUBLIC "-//W3C//DTD SVG 1.1//EN" "http://www.w3.org/Graphics/SVG/1.1/DTD/svg11.dtd"><svg class="icon" height="512" viewBox="0 0 1024 1024" version="1.1" xmlns="http://www.w3.org/2000/svg"><path d="M626.224406 672.334029H261.808062v91.772145h364.416344v-91.772145z m0-199.272293H261.808062V564.986579h364.416344v-91.924843z m-119.884045-198.508798H261.808062v91.772144h244.532299v-91.772144z m28.14244-182.628095h-426.03042v840.150314h671.173516V443.743513h91.802684v501.769162a78.472055 78.472055 0 0 1-78.441515 78.334626h-697.834775a78.456785 78.456785 0 0 1-78.426245-78.334626V78.487325A78.456785 78.456785 0 0 1 95.152291 0.152699h439.40686v91.772144zM993.893239 28.554727a46.924426 46.924426 0 0 0-66.363018 0L772.403231 196.829108 696.435441 119.105279a46.878616 46.878616 0 1 0-72.80692 59.094542l125.350671 120.174172a42.007516 42.007516 0 0 0 55.689353-3.20668l188.736057-200.646585A46.481599 46.481599 0 0 0 993.893239 28.554727z" fill="#82C529" /></svg>